# xmcd CD database file
#
# Track frame offsets:
#	150
#	17660
#	32676
#	47792
#	64461
#	80031
#	94321
#	108938
#	120742
#	131104
#	146081
#	158225
#
# Disc length: 2357 seconds
#
# Revision: 0
# Processed by: cddbd v1.4PL0 Copyright (c) Steve Scherf et al.
# Submitted via: CDex 1.40Beta8
#
DISCID=ac09330c
DTITLE=Ninon - You'll never know
DYEAR=1998
DGENRE=Country
TTITLE0=You'll never know
TTITLE1=Too little too much
TTITLE2=Bye bye
TTITLE3=One of those nights
TTITLE4=You've got to talk to me
TTITLE5=Oklahoma swing
TTITLE6=Perfect love
TTITLE7=Just another heartache
TTITLE8=Wrong side of love
TTITLE9=I can love you better
TTITLE10=Do you wanna make something of it
TTITLE11=Dark horse
EXTD=YEAR: 1998 ID3G: 2
EXTT0=
EXTT1=
EXTT2=
EXTT3=
EXTT4=
EXTT5=
EXTT6=
EXTT7=
EXTT8=
EXTT9=
EXTT10=
EXTT11=
PLAYORDER=
